<?xml version="1.0" encoding="UTF-8" standalone="no"?><!DOCTYPE svg PUBLIC "-//W3C//DTD SVG 1.1//EN" "http://www.w3.org/Graphics/SVG/1.1/DTD/svg11.dtd"><svg width="100%" height="100%" viewBox="0 0 2048 2048" version="1.1" xmlns="http://www.w3.org/2000/svg" xmlns:xlink="http://www.w3.org/1999/xlink" xml:space="preserve" xmlns:serif="http://www.serif.com/" style="fill-rule:evenodd;clip-rule:evenodd;stroke-linejoin:round;stroke-miterlimit:2;"><g id="Background"><g id="Ring"><path id="Ring1" serif:id="Ring" d="M1026.006,0.043c715.79,5.729 1202.017,703.009 960.214,1377.776c-172.243,480.655 -744.185,829.668 -1342.816,596.67c-418.69,-162.962 -726.775,-635.206 -622.402,-1153.737c86.091,-427.705 462.728,-816.891 1005.004,-820.709Zm56.072,1879.729c23.009,-2.712 69.366,-4.285 142.146,-21.781c507.052,-121.892 769.827,-650.613 613.604,-1107.608c-179.2,-524.211 -783.077,-733.503 -1240.139,-469.931c-493.36,284.505 -576.566,960.839 -172.927,1355.81c289.378,283.163 639.847,243.783 657.316,243.509Z" style="fill-opacity:1;"/></g></g></svg>