<?xml version="1.0" encoding="UTF-8" standalone="no"?><!DOCTYPE svg PUBLIC "-//W3C//DTD SVG 1.1//EN" "http://www.w3.org/Graphics/SVG/1.1/DTD/svg11.dtd"><svg width="100%" height="100%" viewBox="0 0 2048 2048" version="1.1" xmlns="http://www.w3.org/2000/svg" xmlns:xlink="http://www.w3.org/1999/xlink" xml:space="preserve" xmlns:serif="http://www.serif.com/" style="fill-rule:evenodd;clip-rule:evenodd;stroke-linejoin:round;stroke-miterlimit:2;"><g id="Background"><g id="Paw"><path id="Pad" d="M1022.82,1615.716c-88.928,3.764 -233.095,73.434 -300.272,48.145c-35.624,-13.411 -76.794,-58.754 -43.447,-147.086c88.184,-233.589 262.247,-348.62 389.716,-316.616c118.219,29.681 224.632,136.263 289.045,290.066c8.983,21.449 43.865,94.588 4.709,145.768c-43.319,56.621 -109.132,31.713 -259.398,-6.03c-61.211,-15.374 -61.572,-13.548 -80.354,-14.246Z"/><path id="Toe1" d="M548.967,1173.766c-0.498,-22.621 -0.201,-22.582 1.706,-31.928c13.849,-67.883 72.122,-70.452 95.487,-64.576c104.616,26.309 139.303,166.913 83.298,215.886c-74.54,65.181 -181.814,-41.219 -180.491,-119.382Z"/><path id="Toe2" d="M880.547,1134.757c-8.008,-0.452 -7.935,-0.186 -15.893,-1.707c-133.538,-25.534 -167.317,-251.193 -54.451,-290.561c3.37,-1.176 24.22,-8.448 44.434,-4.071c152.752,33.072 168.044,292.65 25.911,296.339Z"/><path id="Toe3" d="M1149.079,1134.756c-7.54,-0.372 -7.504,-0.269 -8.143,-0.401c-132.739,-27.556 -102.556,-237.338 10.011,-287.54c4.166,-1.858 30.932,-13.795 56.386,-8.462c139.491,29.225 93.949,291.491 -58.254,296.404Z"/><path id="Toe4" d="M1498.839,1157.74c0.042,3.966 3.187,33.28 -13.87,69.773c-45.264,96.842 -167.794,123.552 -192.085,16.484c-18.925,-83.414 82.857,-207.94 168.316,-157.621c35.347,20.812 37.346,64.915 37.638,71.363Z"/></g><path id="Handset" d="M761.206,744.93c-1.983,35.175 -10.751,35.572 -136.503,131.104c-87.381,66.382 -98.454,80.926 -135.022,71.603c-20.799,-5.302 -20.063,-8.836 -110.241,-96.396c-83.538,-81.113 -91.688,-86.803 -89.867,-118.341c1.229,-21.294 2.953,-29.78 74.49,-97.623c184.486,-174.958 429.614,-242.233 574.649,-252.445c3.883,-0.273 340.736,-47.387 656.657,180.527c44.322,31.975 146.806,118.711 159.156,151.401c14.182,37.536 -12.518,64.073 -16.49,68.02c-12.471,12.394 -143.945,143.063 -157.443,153.342c-45.983,35.018 -82.393,-2.77 -123.472,-34.148c-151.708,-115.883 -164.712,-117.503 -170.322,-150.946c-1.687,-10.054 1.51,-194.874 -1.793,-198.142c-1.198,-1.185 -97.577,-32.392 -194.089,-39.866c-44.199,-3.423 -155.483,-13.022 -320.743,37.019c-12.363,3.744 -8.763,7.674 -8.763,20.53c-0.006,163.999 0.061,163.865 -0.205,174.363Z"/><g id="Ring"><path id="Ring1" serif:id="Ring" d="M1026.006,0.043c715.79,5.729 1202.017,703.009 960.214,1377.776c-172.243,480.655 -744.185,829.668 -1342.816,596.67c-418.69,-162.962 -726.775,-635.206 -622.402,-1153.737c86.091,-427.705 462.728,-816.891 1005.004,-820.709Zm56.072,1879.729c23.009,-2.712 69.366,-4.285 142.146,-21.781c507.052,-121.892 769.827,-650.613 613.604,-1107.608c-179.2,-524.211 -783.077,-733.503 -1240.139,-469.931c-493.36,284.505 -576.566,960.839 -172.927,1355.81c289.378,283.163 639.847,243.783 657.316,243.509Z" style="fill-opacity:1;"/></g></g></svg>