<?xml version="1.0" encoding="UTF-8" standalone="no"?><!DOCTYPE svg PUBLIC "-//W3C//DTD SVG 1.1//EN" "http://www.w3.org/Graphics/SVG/1.1/DTD/svg11.dtd"><svg width="100%" height="100%" viewBox="0 0 2048 2048" version="1.1" xmlns="http://www.w3.org/2000/svg" xmlns:xlink="http://www.w3.org/1999/xlink" xml:space="preserve" xmlns:serif="http://www.serif.com/" style="fill-rule:evenodd;clip-rule:evenodd;stroke-linejoin:round;stroke-miterlimit:2;"><g id="Background"><path id="Handset" d="M761.206,744.93c-1.983,35.175 -10.751,35.572 -136.503,131.104c-87.381,66.382 -98.454,80.926 -135.022,71.603c-20.799,-5.302 -20.063,-8.836 -110.241,-96.396c-83.538,-81.113 -91.688,-86.803 -89.867,-118.341c1.229,-21.294 2.953,-29.78 74.49,-97.623c184.486,-174.958 429.614,-242.233 574.649,-252.445c3.883,-0.273 340.736,-47.387 656.657,180.527c44.322,31.975 146.806,118.711 159.156,151.401c14.182,37.536 -12.518,64.073 -16.49,68.02c-12.471,12.394 -143.945,143.063 -157.443,153.342c-45.983,35.018 -82.393,-2.77 -123.472,-34.148c-151.708,-115.883 -164.712,-117.503 -170.322,-150.946c-1.687,-10.054 1.51,-194.874 -1.793,-198.142c-1.198,-1.185 -97.577,-32.392 -194.089,-39.866c-44.199,-3.423 -155.483,-13.022 -320.743,37.019c-12.363,3.744 -8.763,7.674 -8.763,20.53c-0.006,163.999 0.061,163.865 -0.205,174.363Z"/></g></svg>